<?xml version="1.0" encoding="utf-8"?>
<!-- Generator: Adobe Illustrator 27.1.1, SVG Export Plug-In . SVG Version: 6.00 Build 0)  -->
<svg version="1.1" id="Layer_1" xmlns="http://www.w3.org/2000/svg" xmlns:xlink="http://www.w3.org/1999/xlink" x="0px" y="0px"
	 viewBox="0 0 56.4 73" style="enable-background:new 0 0 56.4 73;" xml:space="preserve">
<style type="text/css">
	.st0{display:none;}
	.st1{fill:#FFFFFF;}
	.st2{fill:none;}
	.st3{font-family:'Gardein-Regular';}
	.st4{font-size:12px;}
</style>
<rect x="-33.1" y="-17.3" class="st0" width="113.4" height="113.4"/>
<path class="st1" d="M32,73c1.3-17.7-4.4-19.3-11.8-23.3c-1.3-0.7-2.7-1.2-4.2-1.2c-5.2-0.2-10.4-0.1-15.7-0.1
	c-0.1,0-0.1-0.1-0.1-0.1C0.2,47.3,0,46.5,0,45.7c0-11.6-0.1-23.2,0-34.8C0.1,2.1,2.3,0,10.9,0c12.8,0,25.6,0,38.6,0
	c0.2,0,0.4,0.2,0.4,0.4c0,4.2,0,41.9,0,47.4c0,0.4-0.3,0.7-0.7,0.7c-3,0-6,0-9,0c-0.4,0-1.1-0.2-1.4-0.5c-3.1-2.6-6.2-5.2-9.4-7.7
	c-4.3-3.3-4.9-6.6-2.3-12.9c0-0.1,0.1-0.1,0.1,0c1,1.2,2.1,2.6,3.2,4c1.3,1.6,2.3,3.4,3.8,4.8c1.2,1.1,2.9,2.3,4.3,2.2
	c1.1,0,2.5-1.8,3-3.1c0.5-1.2-0.1-2.9-0.3-4.3c-0.6-4.9-1.3-9.8-1.6-14.8c-0.1-1.2,1.1-2.5,2.2-4.5c0.1-0.1-0.1-0.2-0.2-0.1
	C34.1,16.2,29,8.4,22.1,8.7c-0.1,0-0.1,0.1-0.1,0.1l0.2,1.8c0.1,0.4-0.1,0.6-0.4,0.6c-5,0-7.9,3.7-11.3,6.7c-0.1,0-0.1,0.1,0,0.2
	c1.6,2.1,1.5,2.2-3.6,8.6c-0.2,0.2,0,0.5,0.2,0.5l1.6,0c0.1,0,0.1,0.1,0.1,0.1c-0.4,1.2-0.8,2.3-1,3.4c-0.2,1.1-0.2,2.2-0.2,3.7
	c0,0.1,0.1,0.1,0.2,0.1l2.4-1.1c0.1-0.1,0.3,0.1,0.3,0.3c-1.5,4.2-0.6,7.3,3,9.9c0.1,0.1,0.2,0,0.2-0.1c0.2-1.2,0.3-2.2,0.5-3.2
	c0.3,0.1,0.7,0.2,1,0.4c1.9,1.7,4.2,4.4,6.4,5.8C31.4,52.2,37.6,57.3,32,73z"/>
<rect x="3.3" y="56.3" class="st2" width="53.2" height="12.7"/>
<text transform="matrix(1 0 0 1 3.2705 64.4322)" class="st1 st3 st4">HASAFET</text>
</svg>
